# xmcd
#
# Track frame offsets:
#	150
#	23777
#	42755
#	60902
#	80345
#	93462
#	107946
#	128901
#	146472
#	162032
#
# Disc length: 2431 seconds
#
# Revision: 0
# Processed by: cddbd v1.5.2PL0 Copyright (c) Steve Scherf et al.
# Submitted via: dBpowerAMP V4.0
#
DISCID=76097d0a
DTITLE=Shuyler Jansen - Today's Remains
DYEAR=2007
DGENRE=country
TTITLE0=Pegasus
TTITLE1=Play Fair
TTITLE2=Today's Remains
TTITLE3=Windswept
TTITLE4=Don't Ask Why
TTITLE5=Jealous Girl
TTITLE6=Hell Hounds
TTITLE7=Cow Girls
TTITLE8=Rivals
TTITLE9=Chief
EXTD=
EXTT0=
EXTT1=
EXTT2=
EXTT3=
EXTT4=
EXTT5=
EXTT6=
EXTT7=
EXTT8=
EXTT9=
PLAYORDER=
